# xmcd
#
# Track frame offsets: 
#        150
#        19282
#        32205
#        52395
#        78005
#        91125
#        118495
#        143332
#
# Disc length: 2406 seconds
#
# Revision: 2
# Processed by: cddbd v1.5.2PL0 Copyright (c) Steve Scherf et al.
# Submitted via: ExactAudioCopyFreeDBPlugin 1.0
#
DISCID=66096408
DTITLE=MC5 - Kick Out The Jams
DYEAR=1969
DGENRE=Rock
TTITLE0=Ramblin' Rose
TTITLE1=Kick Out The Jams
TTITLE2=Come Together
TTITLE3=Rocker Reducer No. 62
TTITLE4=Borderline
TTITLE5=Motor City Is Burning
TTITLE6=I Want You Right Now
TTITLE7=Starship
EXTD=
EXTT0=
EXTT1=
EXTT2=
EXTT3=
EXTT4=
EXTT5=
EXTT6=
EXTT7=
PLAYORDER=
